PathFileType	4	(X/Y/Z)	C:\Users\chris\Documents\GitHub\baseballds\vids\pitch2_Sports2D\pitch2_Sports2D_m_person00.trc
DataRate	CameraRate	NumFrames	NumMarkers	Units	OrigDataRate	OrigDataStartFrame	OrigNumFrames
30	30	9	22	m	30	30	243
Frame#	Time	Hip			RHip			RKnee			RAnkle			RBigToe			RSmallToe			RHeel			LHip			LKnee			LAnkle			LBigToe			LSmallToe			LHeel			Neck			Head			Nose			RShoulder			RElbow			RWrist			LShoulder			LElbow			LWrist		
		X1	Y1	Z1	X2	Y2	Z2	X3	Y3	Z3	X4	Y4	Z4	X5	Y5	Z5	X6	Y6	Z6	X7	Y7	Z7	X8	Y8	Z8	X9	Y9	Z9	X10	Y10	Z10	X11	Y11	Z11	X12	Y12	Z12	X13	Y13	Z13	X14	Y14	Z14	X15	Y15	Z15	X16	Y16	Z16	X17	Y17	Z17	X18	Y18	Z18	X19	Y19	Z19	X20	Y20	Z20	X21	Y21	Z21	X22	Y22	Z22
30	1.0	0.323313529212665	0.5975399569477099	0.0	0.31675230433794943	0.5620451537916488	0.0	0.6154202938494203	0.26627545826908877	0.0	0.786881225464009	-0.09594736945696629	0.0	1.013677577575983	-0.04376146141818045	0.0	0.9832198040548419	-0.08337949801951001	0.0	0.7805639132745069	-0.1639878646003181	0.0	0.37660541277062193	0.6002327600788921	0.0	0.6220397163824966	0.2979940620797875	0.0	0.7764333529204531	-0.009447970557179912	0.0	0.9898499299383566	0.027880559776698257	0.0	0.9476427034806499	0.042129921935261376	0.0	0.7671732210859757	-0.07739060166961852	0.0	0.059989265656039376	1.1468207748575856	0.0	0.007471409492936207	1.3977008906296788	0.0	0.17877248757271602	1.3039191238684291	0.0	0.03953972753030466	1.0278983523638232	0.0	0.15713053916609476	0.7425833879081377	0.0	0.500732920860386	0.7462977418509594	0.0	0.13181056466396612	1.075670998477357	0.0	0.26586745858046906	0.815869447727028	0.0	0.49196214235678554	0.7340364420778905	0.0
31	1.0333333333333332	0.32275551449859147	0.5976580312347505	0.0	0.3142235011724012	0.5643936598549338	0.0	0.6164041584478165	0.26254949555251533	0.0	0.7886324851831208	-0.09940038901310684	0.0	1.0127681056023292	-0.04742516907751463	0.0	0.981994278863627	-0.088807246474797	0.0	0.7823447702735076	-0.16618310261909422	0.0	0.3733452636885002	0.6022945991310886	0.0	0.6202300618502712	0.2960047388306912	0.0	0.7784195634698883	-0.01186704873611255	0.0	0.9930231955599942	0.0301855678233356	0.0	0.9501516200632392	0.04473433921428058	0.0	0.768334302572511	-0.07992449770520045	0.0	0.05889109993803015	1.1451421562726813	0.0	0.014719803386779086	1.4031727536266578	0.0	0.18004080583565846	1.3004832644757927	0.0	0.039616355502074	1.0292002057555556	0.0	0.15659948126975506	0.7417435283622972	0.0	0.5033810947816899	0.751401729096516	0.0	0.1274127282621036	1.0734544821044707	0.0	0.25238286215385924	0.8048094924839132	0.0	0.4749985673402997	0.7275278753396266	0.0
32	1.0666666666666667	0.32285087529608736	0.5962943418310429	0.0	0.3128699545952715	0.5649012865838315	0.0	0.6174231247060792	0.26064302730672684	0.0	0.7900500233920732	-0.10157439388323335	0.0	1.013823230275061	-0.04997652183836711	0.0	0.9814147787440894	-0.09169960098296666	0.0	0.7834724942356512	-0.16763190355807078	0.0	0.3712221852396577	0.6026358797934174	0.0	0.6207861810657885	0.29629739301072866	0.0	0.7801468725796158	-0.010009344880847624	0.0	0.9954454425049323	0.03537969964427325	0.0	0.9530816846818617	0.049897838036577186	0.0	0.7695180062596152	-0.07720461527124074	0.0	0.059924238727166845	1.1432412400832734	0.0	0.02223908127154927	1.4038453131617932	0.0	0.1819950661791771	1.295921648811341	0.0	0.03994949843834897	1.0292938131384393	0.0	0.1568156489258213	0.740954239177162	0.0	0.5045918824357174	0.754252985809072	0.0	0.12769498378464486	1.0706675882264614	0.0	0.25050102437569277	0.8007566394071012	0.0	0.4657473481913239	0.7193618426111904	0.0
33	1.1	0.32399804997433385	0.5935634133092308	0.0	0.31438894207620804	0.5624133663989893	0.0	0.6194213376409825	0.2602240187468242	0.0	0.7912471046908919	-0.10236534917357562	0.0	1.017045511357146	-0.0461772587009693	0.0	0.9845597516967565	-0.08689090460645732	0.0	0.7846238910011182	-0.16922542710757021	0.0	0.3707816178308891	0.598261077315752	0.0	0.6225150517434459	0.2977514730579797	0.0	0.7808352575393879	-0.005561053119324644	0.0	0.9953226380035513	0.0363020303252241	0.0	0.9526813499994292	0.05095158432385624	0.0	0.7708765110731108	-0.07213116717374181	0.0	0.06485219382644761	1.1413413164453647	0.0	0.028101521911047582	1.4005411406170392	0.0	0.1853604094211613	1.2900241324645745	0.0	0.04379405435959276	1.0284156335180008	0.0	0.15903301846095508	0.739318314486439	0.0	0.5044576090571323	0.7577172505174862	0.0	0.1340310322114306	1.0685455475477428	0.0	0.2560071052040461	0.7991673560529269	0.0	0.46430733800498997	0.7056992007923831	0.0
34	1.1333333333333333	0.3222019272611102	0.5911340694363137	0.0	0.3145825868735092	0.5593894023419874	0.0	0.6207210698530172	0.259766755639243	0.0	0.7939630844437322	-0.10317447906908683	0.0	1.0217979677158546	-0.04006265565030296	0.0	0.9907169464393982	-0.08082241388884004	0.0	0.7884319654347888	-0.17178432088115408	0.0	0.36811304138811046	0.5930073149405948	0.0	0.6233146603584987	0.29922168388504916	0.0	0.780424603160948	-0.002271593078470426	0.0	0.9944323852012723	0.036093595112251284	0.0	0.9509188448892492	0.050322766146640684	0.0	0.7706942671302986	-0.0694038560812317	0.0	0.07190181656584854	1.1392518667789842	0.0	0.03354203085295526	1.3981079925148643	0.0	0.19004204948840694	1.2855315923563806	0.0	0.050032642734699755	1.0275298292611512	0.0	0.16357267738947956	0.7367566590412596	0.0	0.505477894244013	0.7636920318783562	0.0	0.14378389384838244	1.067981234302021	0.0	0.26489613045336535	0.7969030924593535	0.0	0.47327403684566555	0.6969094479383026	0.0
35	1.1666666666666667	0.31590312577138147	0.5884372431225838	0.0	0.31030469246218323	0.5556832811053415	0.0	0.6197437809045486	0.2572545980504748	0.0	0.7981051136017564	-0.10503142516302638	0.0	1.0255715891078674	-0.039864746442744216	0.0	0.9957893725865441	-0.08172524865028162	0.0	0.7943768456859931	-0.17477344867415748	0.0	0.36307450995805934	0.5896261026530207	0.0	0.6228388556454449	0.29917297900831513	0.0	0.7793007067100267	-0.0006376097493446341	0.0	0.9930213102050257	0.041111772832704896	0.0	0.9497417228531476	0.054211409466769715	0.0	0.7685495665350075	-0.06732241393828635	0.0	0.07769382131600248	1.1369721089074685	0.0	0.04061164353362881	1.3987588471079628	0.0	0.19571093838282408	1.2835199107599582	0.0	0.05538671644309734	1.0262593571242962	0.0	0.16979507211898673	0.7332024236089195	0.0	0.5105047166661361	0.7716920730652418	0.0	0.15469915205790352	1.0688214572688557	0.0	0.27518973532449403	0.7956377939752476	0.0	0.49057625696757967	0.7036983592056366	0.0
36	1.2	0.30914534878544697	0.584342369842865	0.0	0.302924556899049	0.5498467181582529	0.0	0.617199417891218	0.25349713845062904	0.0	0.8009071412062824	-0.1072255102036919	0.0	1.026692058077863	-0.04576868098084666	0.0	0.9968838377334912	-0.08764940809312888	0.0	0.798072644868395	-0.17721270701851494	0.0	0.35976551122980727	0.5862926835729784	0.0	0.6223664160568493	0.2966018979979074	0.0	0.7776793630498053	0.0014627705258127542	0.0	0.9920323822244707	0.0471657507425803	0.0	0.9489287417483794	0.06024393705559642	0.0	0.7670354731538784	-0.06276241719388087	0.0	0.08199793879201057	1.1353766111865473	0.0	0.04982946432968193	1.4002399802234482	0.0	0.20329857583526276	1.2811868503409838	0.0	0.05946680565349008	1.0242016319899476	0.0	0.1775700286282035	0.7292128617732915	0.0	0.5189482645386315	0.7795375223394404	0.0	0.16521954598928829	1.0701089823513177	0.0	0.2865762601810928	0.7987242844023266	0.0	0.5071342838719939	0.7252304135061123	0.0
37	1.2333333333333334	0.3044670232240097	0.5801489702018167	0.0	0.29401790135923983	0.5440339203053786	0.0	0.6143276246509647	0.25144375794936646	0.0	0.8013879428437065	-0.10895834740982237	0.0	1.02789658125777	-0.05071355509936596	0.0	0.9961690838246395	-0.09204703594380423	0.0	0.7980249767138972	-0.17848346496712475	0.0	0.35903241699605676	0.5830264688542199	0.0	0.6221248624299444	0.2935186600215885	0.0	0.7757114670243203	0.005495085668081546	0.0	0.9930652126078356	0.04861898276651518	0.0	0.9486568343513971	0.06354698868603091	0.0	0.7678100130503809	-0.05607332285359823	0.0	0.08734950733329565	1.1353366681313652	0.0	0.061149029177514094	1.4004462489844418	0.0	0.21392766931966806	1.276965783384945	0.0	0.0640323120802126	1.021872973892316	0.0	0.18717341552126493	0.7262544153470113	0.0	0.5267914347104509	0.786096886863182	0.0	0.17466750184492713	1.07084422083459	0.0	0.29959563797547906	0.8070627961298399	0.0	0.5183449939566549	0.7539397178002493	0.0
38	1.2666666666666666	0.2991292861116806	0.5772257544096238	0.0	0.2838139384209284	0.541049696847712	0.0	0.6125768792408741	0.25130123682567507	0.0	0.8022225844000314	-0.11078164768544058	0.0	1.0322515858086596	-0.04998432153015957	0.0	0.9987940356779471	-0.09214177370144518	0.0	0.7982735012777366	-0.17892006612813424	0.0	0.3567468007342458	0.5821891463240731	0.0	0.6207630185667022	0.29217243646590935	0.0	0.7740233118157835	0.010376544990352449	0.0	0.9937251847606446	0.048927195373563465	0.0	0.9481420346854061	0.06581510792230201	0.0	0.7691681594065717	-0.049533414840780776	0.0	0.09553508294838636	1.1361347963151078	0.0	0.0752915228774263	1.3998502433114528	0.0	0.22672838166656062	1.272816273069536	0.0	0.07022456288988231	1.019729342367785	0.0	0.1988836666407506	0.7251364701060077	0.0	0.5338201135586645	0.7932705686954699	0.0	0.1838825513146642	1.0704337918804165	0.0	0.31426945710590626	0.8166058215074521	0.0	0.5298549210209902	0.7814720042496103	0.0
